<svg width="341" height="47" viewBox="0 0 341 47" fill="none" xmlns="http://www.w3.org/2000/svg">
            <path fill-rule="evenodd" clip-rule="evenodd" d="M15.1735 1C13.3161 1 11.8103 2.50578 11.8103 4.36324V21.2559C11.8103 21.2583 11.8103 21.2606 11.8103 21.263V12.8097H23.6195V24.6192H32.0655C33.923 24.6192 35.4288 23.1134 35.4288 21.2559V4.36324C35.4288 2.50578 33.923 1 32.0655 1H15.1735Z" fill="#FFA663"></path>
            <path fill-rule="evenodd" clip-rule="evenodd" d="M20.2552 36.4287C22.1126 36.4287 23.6184 34.9229 23.6184 33.0655V24.619H11.8093V12.8095H3.36318C1.50571 12.8095 -6.48499e-05 14.3153 -6.48499e-05 16.1728V33.0655C-6.48499e-05 34.9229 1.50571 36.4287 3.36318 36.4287H20.2552Z" fill="#FF7557"></path>
            <path d="M221.794 0.463379C214.974 0.463379 210.036 4.67047 210.036 10.2968C210.036 17.514 216.035 19.1647 221.36 20.6299C225.609 21.7991 229.429 22.8501 229.429 26.517C229.429 29.913 226.375 32.2447 222.048 32.2447C217.62 32.2447 214.261 30.2679 211.512 27.6828L208.408 31.3323C211.512 34.5257 216.653 36.9587 222.048 36.9587C229.683 36.9587 234.468 32.0926 234.468 26.4663C234.468 19.4096 228.565 17.7094 223.256 16.1802C218.916 14.9303 214.974 13.7946 214.974 9.94202C214.974 7.15418 217.671 5.17735 221.438 5.17735C224.848 5.17735 228.309 6.6473 230.548 9.08032L233.45 5.27873C231.159 2.4909 226.273 0.463379 221.794 0.463379Z" fill="#FDFDFC"></path>
            <path d="M69.3012 0.970258V15.7204H50.6725V0.970258H45.7354V36.4518H50.6725V20.3837H69.3012V36.4518H74.2384V0.970258H69.3012Z" fill="#FDFDFC"></path>
            <path d="M98.1522 11.7161V28.3924C96.778 30.8254 93.9785 32.3461 91.0773 32.3461C87.1582 32.3461 84.5624 29.5582 84.5624 25.1991V11.7161H79.8288V25.9087C79.8288 32.5995 83.8498 36.9587 90.0085 36.9587C93.4187 36.9587 96.6253 35.3367 98.1522 32.8529V36.4518H102.835V11.7161H98.1522Z" fill="#FDFDFC"></path>
            <path d="M128.74 15.6191C130.42 13.3888 133.423 11.2092 137.189 11.2092C143.246 11.2092 147.318 15.2136 147.318 21.4989V36.4518H142.635V22.3099C142.635 18.1535 140.243 15.5684 136.426 15.5684C133.83 15.5684 131.234 17.3424 129.962 19.4713C130.063 19.9274 130.114 20.4342 130.165 20.9409L130.165 20.9413V36.4518H125.483V22.3099C125.483 18.1535 123.039 15.5684 119.375 15.5684C116.575 15.5684 114.234 17.1397 113.063 19.4207V36.4518H108.33V11.7161H113.063V15.2136C114.285 13.4395 116.779 11.2092 120.851 11.2092C124.516 11.2092 127.162 12.6792 128.74 15.6191Z" fill="#FDFDFC"></path>
            <path fill-rule="evenodd" clip-rule="evenodd" d="M171.444 11.7161V15.3149C170.12 12.9833 166.659 11.2092 163.147 11.2092C156.276 11.2092 151.034 16.8356 151.034 24.0839C151.034 31.3323 156.276 36.9587 163.147 36.9587C166.608 36.9587 170.069 35.1846 171.444 32.8529V36.4518H176.177V11.7161H171.444ZM164.063 32.5488C159.279 32.5488 155.614 28.8993 155.614 24.0839C155.614 19.2179 159.279 15.6191 164.063 15.6191C167.117 15.6191 170.12 17.3425 171.444 19.7755V28.4431C170.12 30.8254 167.117 32.5488 164.063 32.5488Z" fill="#FDFDFC"></path>
            <path d="M186.337 15.3149C187.864 12.8312 191.071 11.2092 194.43 11.2092C200.639 11.2092 204.61 15.5684 204.61 22.3099V36.4518H199.927V22.9688C199.927 18.6096 197.331 15.8218 193.361 15.8218C190.511 15.8218 187.711 17.3425 186.337 19.7755V36.4518H181.604V11.7161H186.337V15.3149Z" fill="#FDFDFC"></path>
            <path d="M243.809 36.4518H239.076V11.7161H243.809V36.4518Z" fill="#FDFDFC"></path>
            <path fill-rule="evenodd" clip-rule="evenodd" d="M268.752 11.7161V15.2642C267.429 12.9326 263.967 11.2092 260.456 11.2092C253.584 11.2092 248.342 16.7342 248.342 23.8305C248.342 30.9775 253.584 36.5025 260.456 36.5025C263.917 36.5025 267.378 34.7791 268.752 32.4981V35.5394C268.752 39.6958 265.545 42.6357 261.27 42.6357C257.758 42.6357 254.551 41.4699 252.668 39.4424L250.276 42.6357C252.414 45.2715 256.994 46.8428 261.372 46.8428C268.396 46.8428 273.485 42.3823 273.485 35.5901V11.7161H268.752ZM261.372 32.1433C256.587 32.1433 252.923 28.5952 252.923 23.8305C252.923 19.0658 256.587 15.5684 261.372 15.5684C264.426 15.5684 267.429 17.2411 268.752 19.6234V28.139C267.429 30.4706 264.426 32.1433 261.372 32.1433Z" fill="#FDFDFC"></path>
            <path d="M283.431 15.3149C284.957 12.8312 288.164 11.2092 291.523 11.2092C297.733 11.2092 301.703 15.5684 301.703 22.3099V36.4518H297.02V22.9688C297.02 18.6096 294.425 15.8218 290.454 15.8218C287.604 15.8218 284.805 17.3425 283.431 19.7755V36.4518H278.697V11.7161H283.431V15.3149Z" fill="#FDFDFC"></path>
            <path fill-rule="evenodd" clip-rule="evenodd" d="M325.855 11.7161V15.3149C324.532 12.9833 321.071 11.2092 317.559 11.2092C310.688 11.2092 305.445 16.8356 305.445 24.0839C305.445 31.3323 310.688 36.9587 317.559 36.9587C321.02 36.9587 324.481 35.1846 325.855 32.8529V36.4518H330.589V11.7161H325.855ZM318.475 32.5488C313.691 32.5488 310.026 28.8993 310.026 24.0839C310.026 19.2179 313.691 15.6191 318.475 15.6191C321.529 15.6191 324.532 17.3425 325.855 19.7755V28.4431C324.532 30.8254 321.529 32.5488 318.475 32.5488Z" fill="#FDFDFC"></path>
            <path d="M336.015 0.970258H340.749V36.4518H336.015V0.970258Z" fill="#FDFDFC"></path>
            <path d="M241.441 2.2885C239.969 2.2885 238.757 3.54391 238.757 4.97249C238.757 6.44436 239.969 7.65648 241.441 7.65648C242.87 7.65648 244.125 6.44436 244.125 4.97249C244.125 3.54391 242.87 2.2885 241.441 2.2885Z" fill="#FDFDFC"></path>
          </svg>