<svg width="135" height="17" viewBox="0 0 135 17" fill="none" xmlns="http://www.w3.org/2000/svg">
<path d="M8.3522 17C3.54619 17 0 13.4651 0 8.67442C0 3.88372 3.54619 0.348839 8.3522 0.348839C13.1349 0.348839 16.6811 3.88372 16.6811 8.67442C16.6811 13.4651 13.1349 17 8.3522 17ZM3.52285 8.67442C3.52285 11.7209 5.52925 13.9767 8.32887 13.9767C11.1285 13.9767 13.1582 11.7209 13.1582 8.67442C13.1582 5.62791 11.1285 3.34884 8.32887 3.34884C5.52925 3.34884 3.52285 5.62791 3.52285 8.67442Z" fill="#FDFDFC"/>
<path d="M29.053 5.09302V16.814H25.8101V15.186C25.1568 16.3023 23.8504 17 22.2172 17C19.5809 17 17.8545 15.0698 17.8545 12.3953V5.09302H21.1207V11.6744C21.1207 13.093 22.0306 14.1163 23.3838 14.1163C24.8069 14.1163 25.8101 13 25.8101 11.5116V5.09302H29.053Z" fill="#FDFDFC"/>
<path d="M32.1767 1.62791H35.4429V5.09302H38.5925V7.7907H35.4429V12.4186C35.4429 13.5581 36.0261 14.093 37.076 14.093H38.5925V16.814H36.6561C33.9498 16.814 32.1767 15.2791 32.1767 12.5581V7.7907H29.937V5.09302H32.1767V1.62791Z" fill="#FDFDFC"/>
<path d="M45.0407 17C41.0512 17 38.9982 13.8837 38.9982 10.9302C38.9982 7.95349 40.8179 4.90698 44.8074 4.90698C48.9602 4.90698 50.6166 7.95349 50.6166 10.6279C50.6166 11.0698 50.5933 11.4186 50.57 11.6744H42.1244C42.3577 13.3256 43.4076 14.3488 45.0407 14.3488C46.3472 14.3488 47.2104 13.8372 47.467 12.8372H50.6399C50.1733 15.3721 47.9336 17 45.0407 17ZM42.1711 9.62791H47.3737C47.2804 8.32558 46.3705 7.27907 44.8074 7.27907C43.3376 7.27907 42.4511 8 42.1711 9.62791Z" fill="#FDFDFC"/>
<path d="M57.5595 7.7907C55.9497 7.7907 55.2265 9.11628 55.2265 11.1163V16.814H51.9836V5.09302H55.2265V7.04651C55.8564 5.5814 56.743 5.09302 58.1894 5.09302H59.4959V7.7907H57.5595Z" fill="#FDFDFC"/>
<path d="M66.8595 17C65.5064 17 64.2932 16.4419 63.6399 15.5349V16.814H60.3971V0H63.6399V6.32558C64.2932 5.46512 65.4364 4.90698 66.9062 4.90698C70.3124 4.90698 72.4121 7.30233 72.4121 10.9535C72.4121 14.6047 70.3124 17 66.8595 17ZM63.4533 10.9535C63.4533 12.907 64.5965 14.2093 66.3229 14.2093C68.0494 14.2093 69.1925 12.907 69.1925 10.9535C69.1925 8.97675 68.0494 7.67442 66.3229 7.67442C64.5965 7.67442 63.4533 8.97675 63.4533 10.9535Z" fill="#FDFDFC"/>
<path d="M79.3071 17C75.6909 17 73.1012 14.4419 73.1012 10.9535C73.1012 7.46512 75.6909 4.90698 79.3071 4.90698C82.9232 4.90698 85.5129 7.46512 85.5129 10.9535C85.5129 14.4419 82.9232 17 79.3071 17ZM76.3675 10.9535C76.3675 12.8837 77.5573 14.2093 79.3071 14.2093C81.0568 14.2093 82.2467 12.8837 82.2467 10.9535C82.2467 9 81.0568 7.67442 79.3071 7.67442C77.5573 7.67442 76.3675 9 76.3675 10.9535Z" fill="#FDFDFC"/>
<path d="M97.8742 5.09302V16.814H94.6313V15.186C93.9781 16.3023 92.6716 17 91.0385 17C88.4022 17 86.6758 15.0698 86.6758 12.3953V5.09302H89.942V11.6744C89.942 13.093 90.8519 14.1163 92.205 14.1163C93.6281 14.1163 94.6313 13 94.6313 11.5116V5.09302H97.8742Z" fill="#FDFDFC"/>
<path d="M99.8314 16.814V5.09302H103.074V6.72093C103.728 5.5814 105.034 4.90698 106.667 4.90698C109.303 4.90698 111.03 6.81395 111.03 9.51163V16.814H107.764V10.2326C107.764 8.81396 106.854 7.7907 105.501 7.7907C104.078 7.7907 103.074 8.88372 103.074 10.3953V16.814H99.8314Z" fill="#FDFDFC"/>
<path d="M117.793 17C114.317 17 112.241 14.6047 112.241 10.9535C112.241 7.30233 114.317 4.90698 117.746 4.90698C119.216 4.90698 120.359 5.46512 121.013 6.32558V0H124.256V16.814H121.013V15.5349C120.359 16.4419 119.146 17 117.793 17ZM115.437 10.9535C115.437 12.907 116.603 14.2093 118.306 14.2093C120.056 14.2093 121.199 12.907 121.199 10.9535C121.199 8.97675 120.056 7.67442 118.306 7.67442C116.603 7.67442 115.437 8.97675 115.437 10.9535Z" fill="#FDFDFC"/>
<path d="M130.427 17C127.558 17 125.621 15.3953 125.481 12.8605H128.281C128.421 13.907 129.237 14.5581 130.427 14.5581C131.454 14.5581 132.13 14.0698 132.13 13.4186C132.13 11.0233 125.808 13.3721 125.808 8.44186C125.808 6.37209 127.628 4.90698 130.031 4.90698C132.854 4.90698 134.767 6.41861 134.86 8.72093H132.06C131.92 7.72093 130.987 7.18605 130.124 7.18605C129.191 7.18605 128.584 7.5814 128.584 8.32558C128.584 10.7209 135 8 135 13.3023C135 15.5349 133.204 17 130.427 17Z" fill="#FDFDFC"/>
</svg>
